<svg width="512" height="512" xmlns="http://www.w3.org/2000/svg">

 <g>
  <title>Layer 1</title>
  <line stroke-width="0" stroke-linecap="undefined" stroke-linejoin="undefined" id="svg_3" y2="248.08336" x2="267.8333" y1="263.91665" x1="244.1667" stroke="#0000ff" fill="none"/>
  <path id="svg_8" d="m258.57147,18.17786c-129.92692,0 -235.25075,105.32384 -235.25075,235.25075c0,129.92692 105.32384,235.25075 235.25075,235.25075c129.92692,0 235.25075,-105.32384 235.25075,-235.25075c0,-129.92692 -105.32384,-235.25075 -235.25075,-235.25075zm51.11613,352.9085c-1.27871,1.03592 -2.96208,2.10421 -1.69955,3.35055c1.26253,1.26253 -1.45676,2.1204 -1.45676,2.75166s1.68337,3.98181 0.84168,5.43858c-0.84168,1.48913 -1.47295,3.60953 -2.10421,4.87206c-0.63126,1.24634 -2.1204,2.50887 -1.68337,4.40266c0.40466,1.8776 -1.68337,1.24634 -1.68337,3.14013c0,1.8776 1.8776,1.05211 1.45676,3.36674c-0.40466,2.33082 -1.45676,2.96208 -1.45676,4.61308c0,1.68337 1.03592,3.998 1.03592,4.62926s-1.03592,2.75166 -2.50887,4.40266c-1.48913,1.68337 -2.50887,2.75166 -2.33082,3.77139c0.22661,1.05211 1.68337,2.33082 1.47295,2.97827c-0.21042,0.59889 -2.08802,2.71929 -1.8776,4.19224c0.22661,1.45676 2.08802,0.85787 2.50887,1.8776c0.42084,1.05211 -2.50887,1.90998 -1.26253,2.96208c1.26253,1.03592 2.96208,0.8255 2.52505,3.36674c-0.30754,1.81286 1.03592,2.63836 2.03947,3.20487c-14.42194,3.57716 -29.42658,5.69756 -44.94918,5.69756c-102.94446,0 -186.67586,-83.7314 -186.67586,-186.67586c0,-33.55407 9.01573,-64.98774 24.57071,-92.21299c1.27871,-0.67982 2.21751,-1.11685 2.76785,-1.00355c1.05211,0.21042 1.27871,1.68337 2.96208,2.10421c1.68337,0.42084 3.15632,-1.26253 4.20842,-1.89379c1.03592,-0.63126 1.8776,-3.15632 0.8255,-2.94589c-1.05211,0.21042 -3.78758,0 -3.78758,0s2.96208,-1.68337 2.96208,-2.73547s0.40466,-2.73547 2.08802,-3.36674c1.66718,-0.64745 1.66718,-0.22661 0.61508,2.29845c-1.05211,2.52505 2.1204,1.47295 3.36674,0.42084s2.10421,-0.21042 4.40266,-1.68337c2.31463,-1.47295 2.31463,-2.31463 3.57716,-2.31463c1.26253,0 3.57716,2.31463 4.83968,1.47295c1.24634,-0.84168 4.83968,1.05211 6.9439,1.05211c2.08802,0 8.8215,2.73547 10.10021,2.73547c1.26253,0 5.05011,1.45676 5.26053,4.19224c0.21042,2.73547 1.45676,2.52505 2.71929,2.52505s4.20842,1.05211 4.20842,2.10421c0,1.05211 -0.84168,5.26053 1.26253,6.31263c2.08802,1.03592 3.998,2.73547 4.83968,2.31463c0.84168,-0.42084 0,-3.77139 -1.03592,-4.20842c-1.05211,-0.42084 -0.43703,-1.89379 -0.84168,-2.73547c-0.42084,-0.8255 1.26253,-0.8255 1.89379,0.63126c0.63126,1.47295 2.31463,4.20842 3.36674,4.20842c1.03592,0 3.36674,2.52505 2.71929,3.998c-0.63126,1.47295 0.63126,3.57716 2.52505,3.57716c1.8776,0 4.20842,2.94589 5.05011,3.15632c0.84168,0.21042 1.89379,1.26253 1.89379,1.89379c0,0.64745 1.05211,4.20842 1.05211,5.68137c0,1.45676 -0.64745,7.34855 -0.85787,9.66318s1.68337,6.31263 3.78758,8.41684c2.08802,2.10421 3.98181,6.10221 5.24434,6.9439c1.27871,0.84168 2.10421,3.15632 3.998,2.94589c1.89379,-0.21042 3.15632,1.26253 4.83968,4.20842c1.68337,2.94589 3.36674,7.76939 4.62926,8.19024c1.26253,0.42084 3.36674,1.89379 2.29845,2.94589c-1.03592,1.03592 -2.71929,3.36674 -0.8255,3.36674c1.89379,0 2.52505,-1.05211 3.998,0.85787c1.45676,1.8776 3.36674,2.92971 3.14013,4.20842c-0.21042,1.24634 1.68337,1.66718 2.52505,1.8776c0.84168,0.21042 2.73547,3.998 4.62926,2.31463c1.89379,-1.68337 -2.50887,-4.19224 -3.78758,-5.27671c-1.26253,-1.03592 0,-3.35055 -2.94589,-5.66518c-2.94589,-2.31463 -2.52505,-3.998 -4.62926,-5.68137c-2.10421,-1.68337 -3.77139,-3.15632 -1.68337,-4.62926c2.10421,-1.47295 2.31463,1.47295 3.15632,3.36674c0.84168,1.8776 5.24434,5.68137 7.13813,7.34855c1.89379,1.68337 5.27671,7.57516 6.31263,7.57516s3.998,3.36674 3.998,3.36674s1.66718,2.71929 1.03592,3.56097c-0.63126,0.84168 0.85787,3.998 2.33082,4.83968c1.45676,0.84168 7.36474,3.56097 8.20642,3.998c0.84168,0.43703 2.50887,3.57716 4.83968,3.57716c2.29845,0 3.998,0.22661 4.62926,0.85787c0.63126,0.61508 2.50887,3.14013 3.78758,1.68337c1.26253,-1.48913 1.45676,-2.1204 3.36674,-2.1204c1.89379,0 2.71929,1.47295 3.77139,2.52505c1.05211,1.05211 3.998,3.80377 5.47095,3.59334c1.47295,-0.21042 3.36674,1.68337 4.41884,1.03592s2.73547,0.40466 3.56097,0.84168c0.87406,0.42084 3.78758,1.90998 3.59334,4.40266c-0.21042,2.54124 1.66718,3.15632 2.94589,3.78758c1.26253,0.63126 2.94589,2.10421 4.01419,3.15632c1.03592,1.01973 3.33436,1.24634 3.98181,1.8776c0.63126,0.63126 1.05211,1.89379 2.94589,0.84168c1.8776,-1.03592 1.48913,-2.92971 1.48913,-2.92971s2.08802,-0.42084 3.14013,0.42084c1.03592,0.80931 1.68337,3.56097 2.33082,3.98181c0.61508,0.42084 1.86142,3.57716 1.01973,5.85942c-0.8255,2.347 -0.61508,4.62926 -1.47295,4.62926c-0.84168,0 -1.8776,2.75166 -3.15632,3.38292c-1.23015,0.63126 -4.61308,3.57716 -4.40266,4.62926c0.21042,1.01973 2.1204,4.17605 1.68337,5.66518c-0.40466,1.47295 -3.14013,3.15632 -2.49268,5.47095c0.61508,2.33082 5.05011,2.96208 5.22815,5.05011c0.22661,2.1204 3.38292,6.74966 3.80377,8.83768c0.40466,2.10421 3.98181,4.40266 3.98181,7.33236c0,2.97827 5.05011,4.85587 6.10221,5.05011c1.01973,0.21042 2.94589,2.1204 4.40266,2.75166s2.73547,1.8776 3.77139,3.57716s0.85787,4.22461 0.85787,4.83968c0,0.63126 -0.63126,7.12194 -1.26253,10.90952c-0.64745,3.80377 0.80931,6.74966 -0.43703,7.81795zm-135.83489,-195.54592c0.63126,0.21042 1.89379,1.47295 2.52505,1.47295c0.64745,0 3.78758,2.52505 4.62926,3.36674c0.85787,0.84168 0.85787,3.15632 -0.21042,3.36674s-1.68337,-2.31463 -1.89379,-3.36674c-0.21042,-1.05211 -2.31463,-1.05211 -3.36674,-1.68337c-1.05211,-0.63126 -3.39911,-3.73902 -1.68337,-3.15632zm271.02234,84.52452c-2.33082,2.94589 -2.10421,4.40266 -3.15632,4.62926c-1.03592,0.21042 1.05211,1.05211 1.45676,3.14013c0.3561,1.81286 -1.05211,3.62572 1.01973,5.2929c-7.86651,74.76422 -60.05094,136.51471 -129.74887,158.41469c-0.1133,-0.17805 -0.30754,-0.40466 -0.33991,-0.55033c-0.43703,-1.26253 -0.43703,-3.77139 1.03592,-4.61308c1.47295,-0.85787 5.05011,-3.77139 5.8756,-4.40266c0.84168,-0.64745 2.10421,-3.57716 1.47295,-3.998c-0.61508,-0.42084 -3.75521,0 -4.20842,-0.63126c-0.42084,-0.63126 -0.42084,-1.48913 1.68337,-2.94589c2.10421,-1.47295 3.15632,-3.59334 3.998,-4.20842c0.84168,-0.63126 2.50887,-1.89379 3.15632,-3.38292c0.61508,-1.45676 -0.66364,-0.63126 -1.90998,-0.63126s-1.89379,-2.29845 -1.89379,-3.35055s3.15632,0.42084 5.48713,0.84168c2.31463,0.38847 1.24634,-1.05211 1.03592,-2.29845c-0.21042,-1.26253 0.42084,-3.38292 1.69955,-2.75166c1.23015,0.63126 7.75321,-0.21042 8.59489,-0.42084c0.84168,-0.21042 3.14013,-3.98181 3.98181,-5.05011c0.85787,-1.05211 1.03592,-2.08802 0,-2.71929c-1.05211,-0.64745 -2.31463,-2.97827 -2.71929,-3.57716c-0.42084,-0.66364 -0.63126,-4.43503 -0.21042,-5.50332c0.40466,-1.01973 0,6.10221 2.92971,6.96008c2.96208,0.84168 4.62926,1.26253 7.36474,-1.26253c2.73547,-2.50887 4.8235,-4.20842 5.05011,-5.8756c0.21042,-1.68337 0.84168,-3.38292 1.89379,-3.98181c1.05211,-0.63126 1.68337,1.66718 2.94589,-1.05211c1.26253,-2.75166 2.52505,-2.54124 3.78758,-4.83968c1.24634,-2.33082 -2.10421,-5.26053 0.38847,-6.96008c2.54124,-1.66718 6.96008,-3.77139 6.96008,-3.77139s1.26253,-0.63126 3.78758,-1.26253c2.50887,-0.61508 5.24434,-0.22661 6.08602,-1.45676c0.84168,-1.27871 1.68337,-3.998 2.94589,-5.47095c1.27871,-1.48913 2.73547,-3.78758 2.10421,-4.83968c-0.63126,-1.05211 1.68337,-5.69756 1.47295,-6.9439c-0.21042,-1.26253 -2.10421,-4.22461 1.05211,-6.73347s6.50687,-6.32882 6.73347,-7.34855c0.19423,-1.05211 2.73547,-5.47095 2.49268,-7.59134c-0.19423,-2.08802 -2.49268,-4.61308 -3.96563,-5.26053c-1.48913,-0.59889 -4.62926,-0.80931 -5.89179,-2.49268s-4.83968,-3.36674 -6.10221,-2.94589c-1.24634,0.42084 -3.36674,0.8255 -5.05011,-0.24279c-1.68337,-1.01973 -4.40266,-2.31463 -5.45476,-3.14013c-1.06829,-0.8255 -3.78758,-1.45676 -5.05011,-1.45676s-1.05211,-0.85787 -2.94589,1.66718c-1.89379,2.54124 0,3.38292 -3.36674,2.94589c-3.38292,-0.38847 0.40466,-0.61508 2.33082,-3.14013c1.86142,-2.50887 -0.22661,-3.998 -2.33082,-3.35055c-2.10421,0.63126 -0.63126,1.89379 -3.998,2.52505c-3.35055,0.61508 -3.35055,-1.48913 -1.24634,-1.89379c2.10421,-0.42084 5.8756,-2.31463 5.8756,-3.14013c0,-0.85787 -0.42084,-3.1725 -2.10421,-3.1725s-1.26253,-2.08802 -3.77139,-4.80731c-2.52505,-2.75166 -5.68137,-4.43503 -8.22261,-4.03037c-2.49268,0.42084 -4.40266,1.05211 -5.66518,-1.23015c-1.26253,-2.33082 -2.73547,-2.75166 -3.59334,-3.998c-0.8255,-1.26253 -2.94589,0 -3.57716,-0.63126s-0.63126,-0.63126 -0.63126,-0.63126s-2.73547,0.63126 -1.24634,-1.26253c1.45676,-1.89379 2.08802,-5.47095 1.45676,-5.26053c-0.61508,0.21042 -1.68337,3.1725 -2.71929,2.96208c-1.03592,-0.21042 -0.22661,-0.64745 -2.33082,-1.89379c-2.10421,-1.26253 -5.45476,-0.21042 -5.45476,0.84168c0,1.05211 -1.05211,1.89379 -1.05211,1.89379s-0.63126,-0.61508 -1.26253,-1.89379c-0.63126,-1.26253 -3.57716,-1.47295 -5.05011,-0.21042c-1.45676,1.26253 -2.29845,-3.1725 -3.35055,-3.1725s-3.14013,1.05211 -4.20842,2.97827c-1.03592,1.8776 -0.61508,4.61308 -1.48913,4.40266c-0.80931,-0.21042 -1.01973,-3.77139 -0.80931,-5.05011c0.19423,-1.27871 2.50887,-3.36674 0.80931,-3.78758c-1.66718,-0.42084 -4.19224,2.10421 -5.22815,2.31463c-1.05211,0.21042 -3.15632,1.68337 -4.41884,3.38292c-1.24634,1.66718 -1.8776,2.71929 -3.15632,3.35055c-1.24634,0.63126 -3.12394,0 -2.7031,-0.63126c0.40466,-0.63126 -3.59334,-2.92971 -4.22461,-2.10421c-0.64745,0.84168 -2.50887,1.47295 -4.40266,2.33082c-1.89379,0.84168 -3.59334,-1.05211 -3.998,-1.89379s-1.27871,-1.03592 -1.47295,-3.78758c-0.21042,-2.71929 0.43703,-5.68137 1.05211,-7.34855c0.61508,-1.68337 -3.15632,-5.05011 -4.62926,-4.85587c-1.47295,0.24279 -2.94589,1.69955 -4.40266,1.47295c-1.48913,-0.19423 -0.84168,-0.61508 -3.15632,-0.61508c-2.31463,0 -0.42084,-0.40466 0,-2.31463c0.40466,-1.8776 -0.84168,-4.41884 1.48913,-6.10221c2.29845,-1.68337 1.47295,-5.68137 0,-5.8756c-1.48913,-0.22661 -4.22461,0.63126 -6.10221,0.42084c-1.8776,-0.22661 -3.36674,1.47295 -2.73547,3.35055c0.63126,1.89379 -1.05211,3.15632 -1.68337,2.96208c-0.63126,-0.21042 -1.45676,-1.26253 -3.78758,0.42084c-2.29845,1.66718 -3.14013,1.03592 -5.45476,-0.84168c-2.31463,-1.90998 -4.83968,-3.78758 -5.26053,-6.73347c-0.42084,-2.94589 -0.64745,-5.89179 0.21042,-7.57516c0.8255,-1.68337 0.8255,-4.61308 -0.42084,-5.05011c-1.26253,-0.40466 1.45676,-2.50887 2.92971,-2.92971c1.48913,-0.42084 3.78758,-2.31463 4.20842,-3.15632c0.42084,-0.84168 2.52505,-0.64745 4.8235,-0.64745c2.31463,0 2.73547,0 5.05011,1.26253c2.31463,1.26253 2.73547,-0.63126 2.73547,-1.26253c0,-0.63126 0.84168,-1.89379 3.36674,-1.68337c2.52505,0.21042 6.08602,-0.84168 6.73347,-0.21042s1.8776,3.15632 3.14013,2.31463c1.27871,-0.8255 1.68337,-2.31463 2.1204,0.22661c0.40466,2.50887 1.45676,6.31263 3.36674,6.9439c1.8776,0.63126 0.84168,3.14013 2.71929,3.35055c1.86142,0.21042 2.75166,-3.98181 2.1204,-5.45476c-0.64745,-1.45676 -1.90998,-5.8756 -2.96208,-6.92771c-1.03592,-1.05211 -1.03592,-3.78758 1.03592,-4.62926c2.10421,-0.84168 7.15432,-5.05011 8.61108,-6.29645c1.48913,-1.27871 5.47095,-2.33082 4.22461,-4.01419c-1.26253,-1.68337 -1.68337,-2.71929 -1.68337,-3.998s1.26253,-0.84168 1.89379,0s3.14013,-1.26253 2.50887,-2.31463c-0.61508,-1.03592 -0.42084,-2.50887 1.05211,-2.31463c1.47295,0.21042 1.8776,-1.05211 1.26253,-1.89379c-0.63126,-0.84168 1.47295,-1.89379 2.94589,-1.47295c1.48913,0.42084 5.26053,-0.21042 5.89179,-1.05211c0.61508,-0.84168 -1.26253,-1.68337 -1.26253,-3.36674c0,-1.68337 2.50887,-3.15632 3.998,-3.36674c1.47295,-0.21042 3.35055,0 3.57716,-0.63126c0.19423,-0.63126 2.31463,-2.31463 2.50887,-0.84168c0.22661,1.47295 0,3.998 1.68337,3.998c1.68337,0 3.75521,-1.89379 4.40266,-2.08802c0.61508,-0.21042 4.62926,-1.05211 5.47095,-1.26253c0.84168,-0.21042 5.8756,-0.63126 5.26053,-2.10421c-0.63126,-1.45676 -1.26253,-2.92971 -1.90998,-3.56097c-0.63126,-0.63126 -1.24634,0.21042 -2.10421,1.26253c-0.8255,1.05211 -2.31463,1.05211 -2.71929,0.21042c-0.42084,-0.8255 0.19423,-3.35055 -1.26253,-2.52505c-1.48913,0.84168 -1.68337,1.68337 -2.54124,1.26253c-0.84168,-0.42084 -1.66718,-1.89379 -1.66718,-1.89379s2.08802,-1.03592 0.61508,-2.94589c-1.45676,-1.89379 -3.57716,-1.47295 -5.66518,-0.40466c-2.10421,1.03592 -1.90998,0.8255 -4.41884,1.45676s-3.78758,1.26253 -3.78758,1.26253s3.38292,-2.08802 4.83968,-3.36674c1.47295,-1.26253 3.38292,-1.89379 4.62926,-3.15632c1.26253,-1.26253 4.61308,0.63126 4.61308,0.63126s1.69955,-1.68337 1.69955,-0.63126s-0.43703,3.78758 0.8255,3.78758c1.27871,0 4.83968,-1.68337 3.39911,-2.1204c-1.50532,-0.42084 2.08802,0 3.54479,-1.05211c1.48913,-1.05211 3.14013,-1.05211 3.998,-1.45676c0.84168,-0.42084 1.48913,-2.31463 2.94589,-2.31463c1.48913,0 2.10421,1.89379 0,3.15632s-2.31463,4.41884 -3.36674,5.26053c-1.03592,0.84168 -0.42084,1.89379 1.26253,1.68337c1.68337,-0.21042 3.14013,0.21042 4.62926,-0.21042s2.31463,0.42084 2.71929,1.05211c0.42084,0.63126 1.68337,-0.63126 1.68337,-0.63126s2.73547,-0.63126 3.57716,0.42084c0.85787,1.03592 1.48913,-0.63126 0.85787,-1.68337c-0.63126,-1.03592 -1.48913,-2.08802 -2.10421,-3.36674c-0.63126,-1.26253 -1.47295,-1.68337 -3.14013,-1.26253c-1.68337,0.42084 -2.10421,-0.42084 -3.15632,-1.03592c-1.05211,-0.64745 -1.90998,0.84168 -1.05211,-0.64745c0.85787,-1.45676 1.26253,-1.89379 1.89379,-3.15632c0.63126,-1.26253 3.38292,-3.57716 0.63126,-4.19224c-2.73547,-0.64745 -3.59334,-1.05211 -3.998,-2.31463c-0.42084,-1.26253 -3.57716,-3.57716 -4.40266,-3.57716c-0.85787,0 -3.77139,0 -3.998,-1.05211c-0.21042,-1.05211 -2.31463,-3.36674 -3.36674,-4.41884c-1.03592,-1.05211 -5.05011,-5.68137 -5.68137,-6.10221c-0.63126,-0.42084 -1.47295,-0.21042 -3.36674,2.31463c-1.8776,2.54124 -3.56097,2.96208 -5.05011,2.33082c-1.47295,-0.63126 -1.68337,-0.42084 -3.12394,-2.10421c-1.50532,-1.68337 1.45676,-1.89379 0.8255,-2.94589c-0.64745,-1.03592 -3.998,-1.47295 -6.10221,-1.68337c-2.10421,-0.21042 -3.57716,-2.52505 -6.73347,-2.73547c-3.14013,-0.21042 -6.92771,0.42084 -7.97981,0.42084c-1.03592,0 -1.03592,1.47295 -1.45676,3.78758c-0.43703,2.31463 1.45676,2.94589 -0.43703,3.36674c-1.8776,0.42084 -2.73547,0.63126 -0.84168,1.47295c1.89379,0.84168 4.41884,4.20842 4.41884,4.20842s0,1.89379 -1.48913,2.94589c-1.45676,1.05211 -2.94589,2.10421 -3.77139,0.85787c-0.85787,-1.27871 -3.15632,-1.05211 -2.50887,0.21042c0.61508,1.26253 1.8776,1.89379 1.8776,3.15632c0,1.24634 1.89379,4.40266 0.63126,5.45476c-1.26253,1.05211 -2.71929,0.22661 -3.77139,0.42084s-2.1204,-1.68337 -1.26253,-2.10421c0.8255,-0.42084 -0.22661,-3.57716 -0.22661,-3.57716s-2.50887,3.57716 -2.31463,1.68337c0.22661,-1.89379 -1.03592,-2.10421 -1.03592,-3.57716c0,-1.47295 -1.27871,-2.10421 -3.14013,-1.68337c-1.90998,0.42084 -4.20842,-0.64745 -7.80177,-1.27871c-3.56097,-0.63126 -5.03392,-1.03592 -7.97981,-2.52505c-2.94589,-1.47295 -3.998,-0.42084 -5.47095,-0.21042c-1.47295,0.21042 -0.84168,-2.94589 -2.73547,-3.35055c-1.8776,-0.43703 -2.92971,0.40466 -3.35055,-2.33082c-0.42084,-2.71929 0.63126,-3.36674 5.24434,-6.31263c4.62926,-2.94589 3.998,-4.20842 7.57516,-4.62926c3.56097,-0.42084 5.26053,0.42084 5.26053,-0.63126s0.84168,-5.26053 0.84168,-3.15632s4.24079,2.2337 2.33082,3.70665c-1.8776,1.47295 -0.84168,1.68337 0.64745,1.68337c1.47295,0 4.19224,-1.47295 4.19224,-1.47295s3.36674,-1.47295 4.20842,-0.21042c0.85787,1.26253 0.85787,2.52505 2.33082,2.52505s4.61308,-1.68337 1.8776,-3.15632c-2.71929,-1.47295 -4.40266,-1.26253 -6.08602,-2.94589s-1.26253,-1.05211 -3.15632,-0.63126c-1.8776,0.42084 -1.8776,-0.63126 -2.52505,-0.63126s-1.68337,0.42084 -2.10421,-0.42084c-0.40466,-0.84168 0.22661,-1.05211 2.347,-1.05211c2.08802,0 4.61308,0.63126 4.61308,0.63126s2.50887,-0.84168 3.14013,-1.05211c0.63126,-0.21042 3.998,-0.63126 3.36674,-2.50887c-0.64745,-1.89379 -2.73547,-1.89379 -3.36674,-2.52505s1.26253,-1.45676 2.31463,-1.89379c1.05211,-0.42084 3.998,0 3.998,0s1.89379,0.21042 1.89379,-0.63126s-0.45321,-1.89379 0.8255,-1.26253s0,2.52505 1.89379,2.10421c1.8776,-0.42084 2.31463,0 3.35055,0.63126c1.05211,0.63126 -0.21042,3.15632 -1.24634,3.57716c-1.05211,0.40466 -2.73547,1.24634 -0.42084,1.45676c2.33082,0.22661 3.98181,0.22661 3.98181,0.22661s1.48913,-1.47295 2.1204,-2.73547c0.61508,-1.26253 1.68337,-0.42084 2.50887,0c0.84168,0.40466 3.998,1.05211 1.05211,1.89379c-2.96208,0.84168 -3.57716,1.89379 -4.20842,2.94589c-0.61508,1.05211 -0.85787,1.68337 -3.57716,1.05211c-2.75166,-0.63126 -4.20842,-0.42084 -4.83968,0.63126c-0.63126,1.03592 -0.21042,4.41884 0.85787,3.998c1.01973,-0.42084 2.08802,-0.42084 3.35055,-0.84168c1.26253,-0.42084 6.31263,0.42084 7.55897,0.21042c1.26253,-0.21042 3.38292,2.10421 4.01419,1.68337c0.63126,-0.42084 1.89379,0.84168 3.14013,1.68337c1.26253,0.84168 0.84168,-1.89379 3.14013,-0.21042c2.33082,1.68337 1.05211,1.68337 2.33082,1.68337c1.23015,0 3.98181,0.21042 3.98181,0.21042s0.22661,-2.08802 2.33082,-1.68337c2.10421,0.42084 3.96563,2.73547 3.75521,1.03592c-0.19423,-1.66718 0.21042,-2.92971 -1.45676,-4.19224c-1.68337,-1.26253 -4.40266,-2.10421 -4.83968,-2.73547c-0.42084,-0.63126 -0.84168,-1.47295 -0.21042,-1.89379c0.63126,-0.40466 3.57716,0.21042 5.24434,1.27871c1.68337,1.05211 3.15632,2.10421 4.41884,1.26253c1.24634,-0.84168 2.75166,-1.26253 3.36674,-1.89379c0.61508,-0.64745 2.10421,-2.52505 2.10421,-2.52505s-6.32882,-0.8255 -7.13813,-1.89379c-0.85787,-1.05211 -3.80377,-2.52505 -4.64545,-2.52505s-3.14013,1.47295 -3.98181,-0.63126s-0.84168,-4.62926 -1.69955,-4.83968c-0.80931,-0.21042 -9.66318,-1.47295 -10.90952,-2.10421c-1.26253,-0.63126 -6.31263,-2.10421 -8.20642,-3.15632s-4.62926,-2.52505 -6.29645,-2.52505c-1.68337,0 -8.62726,0.84168 -9.88979,0.63126c-1.26253,-0.21042 -5.05011,0.42084 -6.52305,0.63126c-1.47295,0.21042 1.89379,2.94589 -1.24634,3.57716c-3.15632,0.63126 -2.73547,1.05211 -2.10421,-2.10421c0.61508,-3.15632 -2.1204,-3.998 -4.83968,-2.73547c-2.73547,1.26253 -7.15432,2.10421 -6.10221,3.57716c1.05211,1.47295 -0.19423,2.54124 1.89379,3.998c2.10421,1.47295 2.96208,1.89379 5.66518,1.68337c2.75166,-0.21042 5.48713,0.40466 5.48713,0.40466s0,2.54124 -1.03592,2.94589c-1.05211,0.42084 -2.73547,0.42084 -3.1725,1.68337c-0.40466,1.26253 -2.50887,1.89379 -2.50887,1.26253s1.05211,-2.73547 -0.42084,-3.78758c-1.45676,-1.05211 -1.89379,-1.26253 -3.57716,-0.21042c-1.68337,1.05211 -1.8776,1.47295 -2.73547,-0.21042c-0.84168,-1.68337 -3.36674,-3.15632 -3.36674,-3.15632s-1.68337,-2.08802 -2.94589,-3.14013c-1.24634,-1.05211 -3.56097,-0.84168 -3.78758,0.21042c-0.21042,1.03592 0.42084,2.08802 1.26253,3.998c0.84168,1.89379 1.68337,5.45476 0.21042,5.68137c-1.47295,0.21042 -1.68337,0.42084 -3.15632,0.84168c-1.47295,0.42084 -2.10421,-0.63126 -2.10421,-2.31463s-0.64745,-3.15632 -0.21042,-3.78758c0.42084,-0.63126 -1.68337,0.43703 -3.78758,0c-2.10421,-0.40466 -3.77139,0.84168 -1.68337,1.48913c2.10421,0.63126 2.54124,3.14013 0.63126,3.77139c-1.89379,0.63126 -9.04811,0 -11.36274,0s-5.66518,0.63126 -6.31263,-0.63126c-0.63126,-1.26253 1.90998,-2.08802 3.36674,-2.08802c1.47295,0 5.8756,0.19423 7.55897,-2.10421c1.68337,-2.31463 -2.10421,-2.73547 -3.77139,-2.73547c-1.68337,0 -2.96208,-0.63126 -4.83968,-2.50887c-1.90998,-1.89379 1.26253,-3.15632 0.84168,-3.998c-0.42084,-0.84168 -2.52505,-0.22661 -4.40266,-0.22661c-1.89379,0 -4.83968,-1.45676 -4.83968,0.22661c0,1.68337 2.31463,6.50687 0.84168,5.45476c-1.47295,-1.03592 -1.26253,-2.52505 -2.31463,-3.78758c-1.05211,-1.26253 -2.71929,-1.05211 -4.83968,-0.84168c-2.08802,0.21042 -5.66518,0.84168 -6.71729,0.63126c-1.03592,-0.21042 -0.21042,-0.21042 -2.52505,-1.26253c-2.29845,-1.05211 -3.36674,-0.84168 -5.05011,-1.89379c-1.66718,-1.08448 -0.19423,-1.48913 -3.14013,-1.69955c-2.92971,-0.21042 -2.71929,1.45676 -5.66518,1.05211c-2.94589,-0.42084 -3.78758,0.21042 -6.73347,0c-2.94589,-0.21042 -4.40266,-0.42084 -4.83968,1.05211c-0.40466,1.47295 -1.26253,3.998 -2.52505,3.998c-1.24634,0 -2.73547,1.47295 1.26253,1.68337c3.998,0.21042 1.69955,2.08802 5.26053,1.89379c3.57716,-0.21042 6.73347,-0.21042 7.57516,-1.89379c0.84168,-1.68337 1.47295,-1.68337 1.89379,-1.05211c0.40466,0.63126 3.56097,4.40266 3.56097,4.40266s2.1204,1.68337 2.96208,2.10421c0.8255,0.42084 -0.84168,2.31463 -2.52505,1.26253c-1.68337,-1.05211 -4.83968,-0.8255 -6.10221,-1.8776c-1.26253,-1.05211 -6.9439,-1.05211 -8.41684,-0.84168c-1.45676,0.21042 -3.998,-0.63126 -4.83968,-0.63126c-0.8255,0 -3.57716,2.10421 -3.57716,2.10421s-1.05211,-1.69955 -1.66718,-2.54124c-0.63126,-0.84168 -1.68337,0.84168 -2.52505,1.05211c-0.84168,0.21042 -3.36674,-1.68337 -5.89179,-0.84168c-2.52505,0.84168 -1.68337,1.68337 -5.26053,1.47295s-4.40266,-0.84168 -5.66518,-0.63126c-1.27871,0.21042 -1.27871,0.21042 -1.27871,0.21042s0.21042,0.84168 -1.24634,1.68337c-1.47295,0.84168 -2.54124,1.89379 -3.59334,0.63126c-1.03592,-1.26253 -1.66718,-1.26253 -2.29845,-1.47295c-0.64745,-0.21042 -1.90998,-1.26253 -4.62926,-0.64745c-2.73547,0.64745 -6.9439,-0.8255 -7.76939,-0.8255c-0.64745,0 -5.06629,-0.24279 -7.94744,-0.53415c34.13677,-37.09885 82.93827,-60.53652 137.22691,-60.53652c34.44431,0 66.63873,9.53369 94.36576,25.86561c-1.89379,1.16541 -5.16341,0.97117 -6.28026,0.37228c-1.26253,-0.69601 -2.55743,-1.26253 -7.68846,-0.98736c-5.13104,0.29135 -10.76385,1.97472 -9.63081,3.65809c1.16541,1.68337 -2.29845,2.67073 -3.18869,1.82904c-0.89024,-0.84168 -5.00155,0.97117 -4.74257,2.67073c0.25898,1.68337 -0.63126,3.6419 -2.83259,3.22106c-2.16896,-0.43703 -3.70665,0.97117 -3.83614,2.36319c-0.1133,1.4082 -5.00155,2.37938 -5.37383,2.37938c-0.38847,0 -6.66873,-0.12949 -4.37028,1.53769c1.57006,1.11685 2.42794,0.43703 4.37028,0.84168c1.92616,0.42084 3.46385,3.51241 4.48359,3.93326c1.00355,0.42084 2.42794,0 3.0592,-0.84168c0.64745,-0.84168 1.53769,-3.78758 1.53769,-3.78758s0,2.80022 1.57006,3.36674c1.53769,0.56652 5.35764,-0.42084 6.39356,-0.27517c1.03592,0.12949 7.07339,0.98736 8.7082,1.81286c1.68337,0.84168 5.7623,1.4082 6.92771,3.22106c1.14922,1.82904 1.2949,8.14168 1.92616,8.83768c0.64745,0.69601 2.81641,-2.24989 3.31818,-2.94589c0.50177,-0.71219 3.20487,-0.29135 4.1113,0.67982c0.90643,0.98736 2.94589,3.36674 2.83259,4.3541c-0.16186,1.00355 -0.53415,2.52505 -1.2949,1.97472c-0.77694,-0.55033 -2.05565,-0.40466 -1.55388,-1.53769c0.51796,-1.11685 0.77694,-3.51241 -0.24279,-3.51241c-1.03592,0 -1.92616,0 -1.92616,0s-1.94235,-0.56652 -3.22106,1.53769s-0.24279,4.20842 0.64745,4.20842s2.97827,0 2.97827,0.55033c0,0.56652 -2.20133,2.24989 -2.07184,3.23725c0.14568,0.98736 1.78049,4.33791 2.33082,5.05011c0.50177,0.69601 3.18869,1.39202 3.94944,1.55388c0.79313,0.12949 -1.79667,0.27517 -1.13304,1.24634c0.64745,0.98736 1.651,3.36674 3.0592,3.93326c1.4082,0.56652 5.39002,3.07538 5.8756,4.20842c0.51796,1.11685 3.59334,-0.84168 4.24079,-0.98736c0.64745,-0.12949 0.51796,2.94589 2.31463,3.09157c1.78049,0.12949 2.42794,-0.29135 3.96563,-1.55388s1.16541,-2.94589 1.27871,-4.20842c0.14568,-1.26253 0,-2.2337 1.68337,-1.82904c1.68337,0.42084 2.55743,-0.29135 2.42794,-1.68337c-0.12949,-1.4082 -1.53769,-3.09157 1.13304,-3.51241c2.7031,-0.42084 4.1113,-2.2337 5.77849,-2.2337c1.66718,0 6.29645,0.69601 6.78203,0c0.51796,-0.69601 2.7031,-3.93326 4.1113,-4.06275c1.08448,-0.1133 3.62572,-0.33991 6.2317,-0.67982c25.60663,30.51105 41.45295,69.34184 43.26581,111.76596c-1.90998,2.57361 -0.19423,4.9368 0.33991,6.60398c0.01619,0.48559 0.08093,0.9388 0.08093,1.42439c0,2.20133 -0.25898,4.3541 -0.33991,6.53924c-0.01619,0.03237 -0.01619,0.06474 -0.04856,0.09712zm-157.26547,-70.02166c-1.03592,0.21042 -2.73547,-0.84168 -2.73547,-2.31463s-1.47295,2.73547 -0.64745,3.998c0.85787,1.26253 -1.68337,2.73547 -2.50887,2.73547s-1.47295,-1.8776 -1.26253,-3.77139c0.22661,-1.89379 -1.24634,-3.57716 -3.57716,-3.36674c-2.31463,0.22661 -3.36674,2.10421 -4.19224,2.73547c-0.85787,0.63126 -0.85787,4.19224 -0.64745,5.05011s0.21042,3.80377 -1.8776,3.57716c-1.90998,-0.21042 -1.48913,-3.77139 -1.27871,-5.05011c0.22661,-1.26253 -0.63126,-4.41884 0.22661,-6.08602c0.85787,-1.68337 3.35055,-2.31463 5.05011,-2.52505s5.24434,1.05211 5.8756,0.84168c0.64745,-0.22661 3.59334,-0.22661 5.05011,0c1.47295,0.17805 3.56097,3.96563 2.52505,4.17605zm3.77139,0.63126c0.64745,0.42084 5.03392,-0.63126 5.89179,0.42084c0.8255,1.05211 -0.87406,1.26253 -2.96208,2.10421c-2.08802,0.84168 -2.73547,0.63126 -3.57716,1.68337s-3.57716,1.45676 -4.83968,2.71929c-1.26253,1.27871 -3.51241,2.02328 -3.98181,1.05211c-0.64745,-1.26253 0.21042,-0.63126 0.40466,-1.26253c0.21042,-0.63126 3.96563,-2.08802 3.96563,-2.08802s4.4674,-5.05011 5.09866,-4.62926zm-16.8175,-7.36474c-0.61508,0.21042 -2.94589,-0.42084 -4.85587,-0.42084c-1.8776,0 -1.47295,-1.26253 -2.31463,-1.03592c-0.8255,0.21042 -2.71929,0.63126 -3.998,1.26253c-1.26253,0.63126 -3.36674,0.48559 -3.36674,-0.64745c0,-1.68337 0.84168,-1.26253 3.57716,-2.31463c2.73547,-1.05211 5.69756,-3.998 6.9439,-2.73547c1.26253,1.26253 3.57716,2.73547 5.05011,2.94589c1.48913,0.22661 -0.42084,2.73547 -1.03592,2.94589zm-21.51151,-65.24672c-1.27871,0.42084 -5.61662,2.24989 -5.19578,3.22106c0.16186,0.37228 1.26253,1.11685 3.07538,0.84168c1.82904,-0.29135 4.4674,-0.56652 5.74611,-0.69601c1.26253,-0.14568 1.53769,-2.24989 0.14568,-2.37938c-1.4082,-0.14568 -2.52505,-1.4082 -3.77139,-0.98736zm-15.55497,1.68337c-0.98736,0.42084 -3.93326,-0.69601 -5.47095,0.29135c-0.98736,0.61508 -0.42084,2.65454 1.13304,2.78403c1.53769,0.14568 4.19224,-0.97117 4.4674,-0.12949c0.29135,0.84168 1.26253,4.62926 3.78758,3.36674c2.52505,-1.26253 2.37938,-2.37938 3.07538,-2.52505c0.69601,-0.14568 -0.12949,-3.22106 -1.26253,-3.93326c-1.11685,-0.69601 -4.75875,-0.27517 -5.72993,0.14568zm-5.06629,-11.91307c0.27517,0.71219 -0.12949,1.26253 1.82904,1.53769c1.95853,0.29135 2.80022,0.56652 3.93326,0.56652c1.11685,0 0.67982,-1.82904 -0.29135,-3.07538c-0.98736,-1.26253 -0.69601,-1.11685 -3.22106,-1.82904c-2.52505,-0.69601 -5.05011,-0.69601 -6.73347,-0.56652c-1.68337,0.14568 -3.51241,-0.27517 -3.93326,1.68337c-0.21042,1.00355 1.13304,1.81286 2.81641,1.81286s5.32527,-0.8255 5.60044,-0.12949zm3.65809,7.70465c0.69601,1.53769 0.69601,0.8255 2.67073,0.98736c1.94235,0.14568 3.48004,-1.95853 3.62572,-2.65454c0.14568,-0.71219 -0.98736,-2.10421 -3.6419,-1.82904c-2.67073,0.27517 -10.79622,-0.42084 -11.91307,0.55033c-1.06829,0.9388 0,3.77139 -0.42084,4.06275c-0.42084,0.27517 0.14568,1.53769 1.24634,1.26253c1.11685,-0.27517 1.68337,-2.94589 2.54124,-2.94589c0.84168,0.01619 5.19578,-0.97117 5.89179,0.56652zm-26.36738,-5.74611c0.84168,0.69601 2.96208,0.12949 2.80022,-0.56652c-0.12949,-0.69601 0.85787,-3.51241 -0.8255,-3.6419c-1.68337,-0.12949 -4.04656,1.55388 -6.5878,2.39556c-1.63481,0.53415 -1.26253,2.10421 -0.14568,2.10421s3.93326,-0.98736 4.75875,-0.29135zm11.94544,2.52505c-1.4082,0.69601 -1.84523,1.11685 -3.09157,0.84168c-1.26253,-0.27517 -1.26253,-2.52505 -3.51241,-2.10421c-2.2337,0.42084 -2.65454,1.68337 -3.35055,2.24989s-2.24989,0.98736 -2.80022,0.69601c-0.55033,-0.27517 -3.78758,-2.08802 -3.78758,-2.08802s-6.73347,-0.29135 -7.00864,-1.13304c-0.27517,-0.84168 -1.39202,-2.2337 -4.48359,-1.95853s-8.41684,2.10421 -9.25853,2.10421c-0.84168,0 1.00355,1.68337 -0.14568,1.68337c-1.11685,0 -2.50887,-0.12949 -2.92971,1.11685c-0.29135,0.85787 1.26253,0.84168 3.0592,0.84168c1.81286,0 4.77494,0 5.61662,-0.42084c0.84168,-0.42084 5.05011,-1.4082 4.90443,-0.14568c-0.14568,1.27871 1.68337,3.22106 2.65454,2.94589c0.98736,-0.27517 2.96208,-2.10421 3.93326,-1.39202c0.98736,0.69601 1.13304,2.36319 2.10421,2.80022c0.98736,0.40466 3.65809,0.40466 4.92062,0c1.24634,-0.43703 4.75875,-0.43703 6.29645,-0.14568c1.53769,0.29135 6.03747,1.11685 6.45831,0.29135c0.42084,-0.85787 1.68337,-0.98736 1.81286,-1.82904s0.8255,-3.49623 0.8255,-3.49623s-0.8255,-1.55388 -2.21751,-0.85787zm70.97665,144.98012c-1.92616,0.33991 -1.47295,4.07893 0.84168,3.39911c2.31463,-0.67982 1.06829,-3.75521 -0.84168,-3.39911zm18.29045,-5.01773c-1.68337,-0.42084 -3.57716,0 -4.83968,0.21042c-1.26253,0.21042 -4.83968,3.36674 -4.83968,3.36674s2.31463,0.42084 3.77139,0.42084c1.48913,0 2.33082,0.8255 3.57716,1.45676c1.26253,0.64745 3.57716,-0.84168 4.40266,-0.84168c0.85787,0 1.90998,2.52505 2.1204,-0.21042c0.22661,-2.73547 -2.50887,-3.98181 -4.19224,-4.40266zm-58.57799,-136.32048c-0.69601,-1.68337 -4.19224,-2.24989 -4.92062,-0.56652c-0.61508,1.47295 5.61662,2.24989 4.92062,0.56652zm40.09331,126.00985c2.31463,-0.42084 1.03592,-2.33082 -0.85787,-2.10421c-1.90998,0.21042 -1.47295,2.52505 0.85787,2.10421zm27.95363,12.99755c-1.92616,0.3561 -1.48913,4.09512 0.8255,3.4153c2.33082,-0.67982 1.06829,-3.75521 -0.8255,-3.4153zm-25.46095,-6.26407c-1.45676,0.21042 -4.61308,-1.45676 -6.29645,-2.94589c-1.68337,-1.47295 -4.83968,-1.47295 -6.10221,-1.47295c-1.24634,0 -6.31263,1.47295 -6.31263,1.47295c-0.21042,2.10421 1.89379,1.47295 4.41884,1.47295s6.9439,-0.42084 7.75321,0.63126c0.85787,1.03592 4.62926,2.71929 5.69756,3.57716c1.03592,0.84168 4.40266,1.05211 4.61308,0.21042s-2.29845,-3.15632 -3.77139,-2.94589zm-25.07248,-134.28101c-2.10421,-0.14568 -4.77494,-0.14568 -6.45831,0c-1.68337,0.12949 -2.94589,-1.11685 -4.20842,-1.82904c-1.24634,-0.69601 -4.06275,-2.94589 -5.72993,-3.22106c-1.68337,-0.27517 -1.39202,-0.27517 -4.90443,-1.11685c-1.78049,-0.43703 -4.75875,-0.98736 -4.75875,-1.39202c0,-0.42084 -0.84168,1.95853 0.69601,2.67073c1.53769,0.69601 4.06275,1.95853 5.8756,2.65454c1.84523,0.69601 5.32527,0.84168 6.45831,2.24989c1.11685,1.39202 4.90443,2.52505 4.90443,2.52505l4.48359,0.42084c0,0 3.09157,-0.69601 6.31263,-0.42084c3.22106,0.27517 7.97981,0.69601 10.66673,0.56652c2.63836,-0.12949 3.0592,-0.98736 3.36674,-1.53769c0.25898,-0.56652 -4.92062,-1.68337 -6.19933,-1.53769c-1.23015,0.09712 -8.41684,0.09712 -10.50487,-0.03237zm7.83414,32.24298c-0.55033,0.63126 2.54124,1.53769 3.09157,0.69601c0.55033,-0.8255 -1.651,-2.2337 -3.09157,-0.69601zm9.42039,2.92971c1.39202,-0.56652 0.69601,-2.24989 -1.27871,-1.68337c-2.2337,0.64745 -0.14568,2.24989 1.27871,1.68337z" stroke="#007fff" fill="#007fff"/>
  <path transform="rotate(-42, 269.813, 240.639)" id="svg_6" d="m420.75939,281.92232c11.99867,-7.39774 23.47405,-15.92637 33.58306,-23.58221l-302.90131,-3.51294l-41.54762,30.25312l-131.62376,-2.59838c16.49262,-13.77387 34.55967,-29.95446 47.9548,-42.10769l-47.64893,-40.85659l140.4396,0l28.57501,25.52748l309.25482,0l-38.36067,-25.47035c11.83862,-8.02668 29.3591,-18.73843 38.86335,-24.35477l104.00755,64.91583l-104.24411,65.92286l-36.35183,-24.13638l0.00004,0.00001z" stroke="#5fbf00" fill="#5fbf00"/>
 </g>
</svg>